<svg width="326" height="551" viewBox="0 0 326 551" fill="none" xmlns="http://www.w3.org/2000/svg">
<rect width="326" height="551" rx="24" fill="#1C2E52"/>
<path d="M298 14.5774C298.619 14.2201 299.381 14.2201 300 14.5774L305.794 17.9226C306.413 18.2799 306.794 18.9402 306.794 19.6547V26.3453C306.794 27.0598 306.413 27.7201 305.794 28.0774L300 31.4226C299.381 31.7799 298.619 31.7799 298 31.4226L292.206 28.0773C291.587 27.7201 291.206 27.0598 291.206 26.3453V19.6547C291.206 18.9402 291.587 18.2799 292.206 17.9226L298 14.5774Z" fill="#8192A4"/>
<path d="M245.5 36.5774C246.119 36.2201 246.881 36.2201 247.5 36.5774L251.129 38.6726C251.748 39.0299 252.129 39.6902 252.129 40.4047V44.5953C252.129 45.3098 251.748 45.9701 251.129 46.3274L247.5 48.4226C246.881 48.7799 246.119 48.7799 245.5 48.4226L241.871 46.3274C241.252 45.9701 240.871 45.3098 240.871 44.5953V40.4047C240.871 39.6902 241.252 39.0299 241.871 38.6726L245.5 36.5774Z" fill="#8192A4"/>
<path d="M300 53.5774C300.619 53.2201 301.381 53.2201 302 53.5774L306.928 56.4226C307.547 56.7799 307.928 57.4402 307.928 58.1547V63.8453C307.928 64.5598 307.547 65.2201 306.928 65.5774L302 68.4226C301.381 68.7799 300.619 68.7799 300 68.4226L295.072 65.5774C294.453 65.2201 294.072 64.5598 294.072 63.8453V58.1547C294.072 57.4402 294.453 56.7799 295.072 56.4226L300 53.5774Z" fill="#4B5C7A"/>
<path d="M246.5 59.5774C247.119 59.2201 247.881 59.2201 248.5 59.5774L252.995 62.1726C253.614 62.5299 253.995 63.1902 253.995 63.9047V69.0953C253.995 69.8098 253.614 70.4701 252.995 70.8274L248.5 73.4226C247.881 73.7799 247.119 73.7799 246.5 73.4226L242.005 70.8274C241.386 70.4701 241.005 69.8098 241.005 69.0953V63.9047C241.005 63.1902 241.386 62.5299 242.005 62.1726L246.5 59.5774Z" fill="#F2FBFF"/>
<path d="M257.5 83.5774C258.119 83.2201 258.881 83.2201 259.5 83.5774L264.861 86.6726C265.48 87.0299 265.861 87.6902 265.861 88.4047V94.5953C265.861 95.3098 265.48 95.9701 264.861 96.3274L259.5 99.4226C258.881 99.7799 258.119 99.7799 257.5 99.4226L252.139 96.3274C251.52 95.9701 251.139 95.3098 251.139 94.5953V88.4047C251.139 87.6902 251.52 87.0299 252.139 86.6726L257.5 83.5774Z" fill="#4B5C7A"/>
<path d="M248 6.57735C248.619 6.22008 249.381 6.22008 250 6.57735L255.794 9.92265C256.413 10.2799 256.794 10.9402 256.794 11.6547V18.3453C256.794 19.0598 256.413 19.7201 255.794 20.0774L250 23.4226C249.381 23.7799 248.619 23.7799 248 23.4226L242.206 20.0773C241.587 19.7201 241.206 19.0598 241.206 18.3453V11.6547C241.206 10.9402 241.587 10.2799 242.206 9.92265L248 6.57735Z" fill="#4B5C7A"/>
<path d="M214 9.57735C214.619 9.22008 215.381 9.22008 216 9.57735L220.062 11.9226C220.681 12.2799 221.062 12.9402 221.062 13.6547V18.3453C221.062 19.0598 220.681 19.7201 220.062 20.0774L216 22.4227C215.381 22.7799 214.619 22.7799 214 22.4226L209.938 20.0773C209.319 19.7201 208.938 19.0598 208.938 18.3453V13.6547C208.938 12.9402 209.319 12.2799 209.938 11.9226L214 9.57735Z" fill="#DBDFE2"/>
<path d="M199.5 37.2887C199.809 37.11 200.191 37.11 200.5 37.2887L204.696 39.7113C205.006 39.89 205.196 40.2201 205.196 40.5774V45.4226C205.196 45.7799 205.006 46.11 204.696 46.2887L200.5 48.7113C200.191 48.89 199.809 48.89 199.5 48.7113L195.304 46.2887C194.994 46.11 194.804 45.7799 194.804 45.4226V40.5774C194.804 40.2201 194.994 39.89 195.304 39.7113L199.5 37.2887Z" fill="#35476B"/>
<path d="M276.5 41.2887C276.809 41.11 277.191 41.11 277.5 41.2887L280.83 43.2113C281.14 43.39 281.33 43.7201 281.33 44.0774V47.9226C281.33 48.2799 281.14 48.61 280.83 48.7887L277.5 50.7113C277.191 50.89 276.809 50.89 276.5 50.7113L273.17 48.7887C272.86 48.61 272.67 48.2799 272.67 47.9226V44.0774C272.67 43.7201 272.86 43.39 273.17 43.2113L276.5 41.2887Z" fill="#F2FBFF"/>
<path d="M227.5 26.2887C227.809 26.11 228.191 26.11 228.5 26.2887L230.098 27.2113C230.407 27.39 230.598 27.7201 230.598 28.0774V29.9226C230.598 30.2799 230.407 30.61 230.098 30.7887L228.5 31.7113C228.191 31.89 227.809 31.89 227.5 31.7113L225.902 30.7887C225.593 30.61 225.402 30.2799 225.402 29.9226V28.0774C225.402 27.7201 225.593 27.39 225.902 27.2113L227.5 26.2887Z" fill="#F2FBFF"/>
<path d="M237.5 108.289C237.809 108.11 238.191 108.11 238.5 108.289L240.098 109.211C240.407 109.39 240.598 109.72 240.598 110.077V111.923C240.598 112.28 240.407 112.61 240.098 112.789L238.5 113.711C238.191 113.89 237.809 113.89 237.5 113.711L235.902 112.789C235.593 112.61 235.402 112.28 235.402 111.923V110.077C235.402 109.72 235.593 109.39 235.902 109.211L237.5 108.289Z" fill="#F2FBFF"/>
<path d="M281.5 80.2887C281.809 80.11 282.191 80.11 282.5 80.2887L284.098 81.2113C284.407 81.39 284.598 81.7201 284.598 82.0774V83.9226C284.598 84.2799 284.407 84.61 284.098 84.7887L282.5 85.7113C282.191 85.89 281.809 85.89 281.5 85.7113L279.902 84.7887C279.593 84.61 279.402 84.2799 279.402 83.9226V82.0774C279.402 81.7201 279.593 81.39 279.902 81.2113L281.5 80.2887Z" fill="#F2FBFF"/>
<path d="M265.5 23.2887C265.809 23.11 266.191 23.11 266.5 23.2887L268.098 24.2113C268.407 24.39 268.598 24.7201 268.598 25.0774V26.9226C268.598 27.2799 268.407 27.61 268.098 27.7887L266.5 28.7113C266.191 28.89 265.809 28.89 265.5 28.7113L263.902 27.7887C263.593 27.61 263.402 27.2799 263.402 26.9226V25.0774C263.402 24.7201 263.593 24.39 263.902 24.2113L265.5 23.2887Z" fill="#F2FBFF"/>
<path d="M268.5 63.2887C268.809 63.11 269.191 63.11 269.5 63.2887L271.098 64.2113C271.407 64.39 271.598 64.7201 271.598 65.0774V66.9226C271.598 67.2799 271.407 67.61 271.098 67.7887L269.5 68.7113C269.191 68.89 268.809 68.89 268.5 68.7113L266.902 67.7887C266.593 67.61 266.402 67.2799 266.402 66.9226V65.0774C266.402 64.7201 266.593 64.39 266.902 64.2113L268.5 63.2887Z" fill="#35476B"/>
<path d="M217 60.2887C217.309 60.11 217.691 60.11 218 60.2887L220.897 61.9613C221.207 62.14 221.397 62.4701 221.397 62.8274V66.1726C221.397 66.5299 221.207 66.86 220.897 67.0387L218 68.7113C217.691 68.89 217.309 68.89 217 68.7113L214.103 67.0387C213.793 66.86 213.603 66.5299 213.603 66.1726V62.8274C213.603 62.4701 213.793 62.14 214.103 61.9613L217 60.2887Z" fill="#F2FBFF"/>
<path d="M300 87.5774C300.619 87.2201 301.381 87.2201 302 87.5774L306.062 89.9226C306.681 90.2799 307.062 90.9402 307.062 91.6547V96.3453C307.062 97.0598 306.681 97.7201 306.062 98.0774L302 100.423C301.381 100.78 300.619 100.78 300 100.423L295.938 98.0773C295.319 97.7201 294.938 97.0598 294.938 96.3453V91.6547C294.938 90.9402 295.319 90.2799 295.938 89.9226L300 87.5774Z" fill="#35476B"/>
<path d="M227 75.5774C227.619 75.2201 228.381 75.2201 229 75.5774L233.062 77.9226C233.681 78.2799 234.062 78.9402 234.062 79.6547V84.3453C234.062 85.0598 233.681 85.7201 233.062 86.0774L229 88.4227C228.381 88.7799 227.619 88.7799 227 88.4226L222.938 86.0773C222.319 85.7201 221.938 85.0598 221.938 84.3453V79.6547C221.938 78.9402 222.319 78.2799 222.938 77.9226L227 75.5774Z" fill="#F2FBFF"/>
<path d="M224.5 42.5774C225.119 42.2201 225.881 42.2201 226.5 42.5774L228.397 43.6726C229.016 44.0299 229.397 44.6902 229.397 45.4047V47.5953C229.397 48.3098 229.016 48.9701 228.397 49.3274L226.5 50.4226C225.881 50.7799 225.119 50.7799 224.5 50.4226L222.603 49.3274C221.984 48.9701 221.603 48.3098 221.603 47.5953V45.4047C221.603 44.6902 221.984 44.0299 222.603 43.6726L224.5 42.5774Z" fill="#8192A4"/>
</svg>
