<svg width="654" height="156" viewBox="0 0 654 156" fill="none" xmlns="http://www.w3.org/2000/svg">
<path d="M552.859 46.1992H572.389V87.1487H634.128V46.1992H653.658V151.198H634.128V103.529H572.389V151.198H552.859V46.1992Z" fill="white" style="mix-blend-mode:difference"/>
<path d="M471.639 155.399C437.41 155.399 414.31 132.719 414.31 98.6993C414.31 64.8897 437.2 42 471.429 42C505.659 42 528.759 64.8897 528.759 98.6993C528.759 132.509 505.869 155.399 471.639 155.399ZM471.429 57.7498C446.02 57.7498 435.31 69.9297 435.31 98.6993C435.31 127.469 446.02 139.649 471.429 139.649C496.839 139.649 507.759 127.469 507.759 98.6993C507.759 69.9297 496.839 57.7498 471.429 57.7498Z" fill="white" style="mix-blend-mode:difference"/>
<path d="M297.827 119.699L317.567 117.599C317.567 133.349 325.547 139.019 347.597 139.019C367.126 139.019 375.106 134.609 375.106 123.899C375.106 110.249 361.876 103.529 335.207 103.529V87.1494C363.976 87.1494 373.216 83.5795 373.216 72.6596C373.216 62.7897 365.446 58.3798 347.807 58.3798C327.017 58.3798 319.247 64.4697 319.247 81.0595L299.717 78.9595C299.717 55.6498 317.777 42 348.227 42C376.156 42 392.746 53.3399 392.746 72.4496C392.746 86.3094 384.136 95.1293 370.276 95.1293V99.5393C385.816 99.5393 395.476 108.569 395.476 123.059C395.476 143.009 376.996 155.399 347.597 155.399C316.937 155.399 297.827 141.749 297.827 119.699Z" fill="white" style="mix-blend-mode:difference"/>
<path d="M168.63 98.6993C168.63 64.8897 191.519 42 225.749 42C259.979 42 283.078 64.8897 283.078 102.479V103.529H189.839C190.889 128.939 202.019 139.649 228.479 139.649C246.749 139.649 256.199 134.399 259.979 120.749L280.348 122.639C274.048 144.059 256.409 155.399 229.529 155.399C191.729 155.399 168.63 132.719 168.63 98.6993ZM190.259 87.1494H261.028C257.879 66.1497 246.749 57.7498 225.749 57.7498C204.119 57.7498 192.989 66.5697 190.259 87.1494Z" fill="white" style="mix-blend-mode:difference"/>
<path d="M0 77.489C0 31.0796 30.4496 0 75.5991 0C106.679 0 129.568 14.6998 141.118 41.7895L120.328 44.7294C112.559 28.9796 99.3288 20.9997 81.269 20.9997H69.9291C41.9995 20.9997 22.6797 39.6895 22.6797 67.1992V88.1989C22.6797 115.709 41.9995 134.398 69.9291 134.398H81.269C102.689 134.398 119.069 123.058 124.738 104.369L145.528 107.309C135.448 137.548 109.619 155.398 75.5991 155.398C30.4496 155.398 0 124.108 0 77.489Z" fill="white" style="mix-blend-mode:difference"/>
</svg>
